<svg xmlns="http://www.w3.org/2000/svg" xmlns:xlink="http://www.w3.org/1999/xlink" viewBox="0 0 100 125" version="1.1" x="0px" y="0px"><title>Headphone to headphone wrapped outline</title><desc>Created with Sketch.</desc><g stroke="none" stroke-width="1" fill="none" fill-rule="evenodd"><path d="M33.25,12.25 L33.25,22.25 L36.75,22.25 L36.75,12.25 L33.25,12.25 Z M37.25,11.75 L37.25,22.75 L37,22.75 L33,22.75 L32.75,22.75 L32.75,11.75 L37.25,11.75 Z M35.9783001,11.25 L36.2386162,8.12620675 L35,7.30046261 L33.7613838,8.12620675 L34.0216999,11.25 L35.9783001,11.25 Z M33.2386162,7.87379325 L35,6.69953739 L36.7613838,7.87379325 L36.4383666,11.75 L33.5616334,11.75 L33.2386162,7.87379325 Z M33.25,46.75 L36.75,46.75 L36.75,36.75 L33.25,36.75 L33.25,46.75 Z M32.75,47.25 L32.75,36.25 L37.25,36.25 L37.25,47.25 L32.75,47.25 Z M33.75,47.75 L33.75,109.75 L36.25,109.75 L36.25,47.75 L33.75,47.75 Z M36.75,47.25 L36.75,110.25 L33.25,110.25 L33.25,47.25 L36.75,47.25 Z M32.25,35.75 L37.75,35.75 L37.75,23.25 L32.25,23.25 L32.25,35.75 Z M31.75,36.25 L31.75,22.75 L38.25,22.75 L38.25,36.25 L31.75,36.25 Z" fill="#000000" fill-rule="nonzero"/><rect fill="#000000" x="32.8476618" y="13" width="4.22319652" height="1"/><rect fill="#000000" x="32.8476618" y="19" width="4.22319652" height="1"/><rect fill="#000000" x="32.8476618" y="16" width="4.22319652" height="1"/><path d="M63.25,32.25 L63.25,42.25 L66.75,42.25 L66.75,32.25 L63.25,32.25 Z M67.25,31.75 L67.25,42.75 L62.75,42.75 L62.75,31.75 L67.25,31.75 Z M65.9783001,31.25 L66.2386162,28.1262068 L65,27.3004626 L63.7613838,28.1262068 L64.0216999,31.25 L65.9783001,31.25 Z M63.2386162,27.8737932 L65,26.6995374 L66.7613838,27.8737932 L66.4383666,31.75 L63.5616334,31.75 L63.2386162,27.8737932 Z M63.25,66.75 L66.75,66.75 L66.75,56.75 L63.25,56.75 L63.25,66.75 Z M62.75,67.25 L62.75,56.25 L67.25,56.25 L67.25,67.25 L62.75,67.25 Z M63.75,67.75 L63.75,129.75 L66.25,129.75 L66.25,67.75 L63.75,67.75 Z M66.75,67.25 L66.75,130.25 L63.25,130.25 L63.25,67.25 L66.75,67.25 Z M62.25,55.75 L67.75,55.75 L67.75,43.25 L62.25,43.25 L62.25,55.75 Z M61.75,56.25 L61.75,42.75 L68.25,42.75 L68.25,56.25 L61.75,56.25 Z" fill="#000000" fill-rule="nonzero"/><rect fill="#000000" x="62.8476618" y="33" width="4.22319652" height="1"/><rect fill="#000000" x="62.8476618" y="39" width="4.22319652" height="1"/><rect fill="#000000" x="62.8476618" y="36" width="4.22319652" height="1"/><path d="M36.75,75.5119214 C40.9677434,74.0211254 45.4311778,73.25 50,73.25 C54.5688222,73.25 59.0322566,74.0211254 63.25,75.5119214 L63.25,72.8693027 C59.0125486,71.4709848 54.5553657,70.75 50,70.75 C45.4446343,70.75 40.9874514,71.4709848 36.75,72.8693027 L36.75,75.5119214 Z M36.4206407,72.4518787 C40.7600095,70.9992716 45.3293157,70.25 50,70.25 C54.6706843,70.25 59.2399905,70.9992716 63.5793593,72.4518787 L63.75,72.5090008 L63.75,76.2240655 L63.4145627,76.1020858 C59.1528994,74.552358 54.6316406,73.75 50,73.75 C45.3683594,73.75 40.8471006,74.552358 36.5854373,76.1020858 L36.25,76.2240655 L36.25,72.5090008 L36.4206407,72.4518787 Z M33.25,74.2002897 C17.9096284,80.8300876 7.75,95.9779183 7.75,113 L7.75,113.75 L10.25,113.75 L10.25,113 C10.25,97.3802847 19.3417494,83.4117589 33.25,76.9409914 L33.25,74.2002897 Z M33.75,77.2608909 L33.6045474,77.3278542 C19.7899872,83.687789 10.75,97.5228998 10.75,113 L10.75,114.25 L7.25,114.25 L7.25,113 C7.25,95.6470092 17.6851136,80.218997 33.402866,73.5913774 L33.75,73.4450033 L33.75,77.2608909 Z M66.75,76.9409914 C80.6582506,83.4117589 89.75,97.3802847 89.75,113 L89.75,113.75 L92.25,113.75 L92.25,113 C92.25,95.9779183 82.0903716,80.8300876 66.75,74.2002897 L66.75,76.9409914 Z M66.597134,73.5913774 C82.3148864,80.218997 92.75,95.6470092 92.75,113 L92.75,114.25 L89.25,114.25 L89.25,113 C89.25,97.5228998 80.2100128,83.687789 66.3954526,77.3278542 L66.25,77.2608909 L66.25,73.4450033 L66.597134,73.5913774 Z" fill="#000000" fill-rule="nonzero"/><path d="M36.75,80.8914621 C40.9183256,79.1550094 45.3973681,78.25 50,78.25 C54.6026295,78.25 59.0816722,79.1550085 63.25,80.8914621 L63.25,78.2060874 C59.0533771,76.5889812 54.5836334,75.75 50,75.75 C45.4163666,75.75 40.9466229,76.5889812 36.75,78.2060874 L36.75,80.8914621 Z M36.4090291,77.8020683 C40.7094089,76.1220557 45.2958814,75.25 50,75.25 C54.7041186,75.25 59.2905911,76.1220557 63.5909709,77.8020683 L63.75,77.8641955 L63.75,81.6481325 L63.4013364,81.4983702 C59.1965584,79.6923399 54.663021,78.75 50,78.75 C45.3369764,78.75 40.8034393,79.6923409 36.5986638,81.4983745 L36.25,81.6481325 L36.25,77.8641955 L36.4090291,77.8020683 Z M12.5,114 L12.5,114.75 L14.9415584,114.75 L14.9415584,114 C14.9415584,100.761683 22.0596465,88.8034786 33.25,82.5865433 L33.25,79.7682551 C20.6475454,86.1946854 12.5,99.3497393 12.5,114 Z M33.75,82.8818069 L33.6204903,82.9530454 C22.5145328,89.0620225 15.4415584,100.893955 15.4415584,114 L15.4415584,115.25 L12,115.25 L12,114 C12,99.0195259 20.4117377,85.5805509 33.3888415,79.1386819 L33.75,78.9594019 L33.75,82.8818069 Z M66.7500053,82.5865462 C77.9403541,88.8034789 85.0584416,100.761683 85.0584416,114 L85.0584416,114.75 L87.5,114.75 L87.5,114 C87.5,99.3497395 79.3524548,86.1946858 66.7500007,79.7682554 L66.7500053,82.5865462 Z M66.6111585,79.1386819 C79.5882623,85.5805509 88,99.0195259 88,114 L88,115.25 L84.5584416,115.25 L84.5584416,114 C84.5584416,100.893956 77.4854679,89.0620229 66.3795152,82.9530484 L66.2500058,82.8818101 L66.2499993,78.9594016 L66.6111585,79.1386819 Z" fill="#000000" fill-rule="nonzero"/><path d="M36.75,86.4461442 C40.8402297,84.3535229 45.3450422,83.25 50,83.25 C54.6549578,83.25 59.1597703,84.3535229 63.25,86.4461442 L63.25,83.6924586 C59.1160681,81.7612923 54.6261306,80.75 50,80.75 C45.3738694,80.75 40.8839319,81.7612923 36.75,83.6924586 L36.75,86.4461442 Z M36.3930622,83.3077763 C40.6327729,81.3014161 45.2459482,80.25 50,80.25 C54.7540518,80.25 59.3672271,81.3014161 63.6069378,83.3077763 L63.75,83.3754777 L63.75,87.2732853 L63.3830392,87.0790357 C59.2674555,84.9004635 54.7123574,83.75 50,83.75 C45.2876426,83.75 40.7325445,84.9004635 36.6169608,87.0790357 L36.25,87.2732853 L36.25,83.3754777 L36.3930622,83.3077763 Z M17.375,115 L17.375,115.75 L19.7336957,115.75 L19.7336957,115 C19.7336957,104.241974 24.8737694,94.3997398 33.25,88.5512214 L33.25,85.6025147 C23.4896757,91.7430056 17.375,102.811982 17.375,115 Z M33.75,88.8129529 L33.6422393,88.8875075 C25.3372615,94.6333296 20.2336957,104.360122 20.2336957,115 L20.2336957,116.25 L16.875,116.25 L16.875,115 C16.875,102.480316 23.2393865,91.1211491 33.3697873,84.9401116 L33.75,84.7081258 L33.75,88.8129529 Z M66.75,88.5512214 C75.1262306,94.3997398 80.2663043,104.241974 80.2663043,115 L80.2663043,115.75 L82.625,115.75 L82.625,115 C82.625,102.811982 76.5103243,91.7430056 66.75,85.6025147 L66.75,88.5512214 Z M66.6302127,84.9401116 C76.7606135,91.1211491 83.125,102.480316 83.125,115 L83.125,116.25 L79.7663043,116.25 L79.7663043,115 C79.7663043,104.360122 74.6627385,94.6333296 66.3577607,88.8875075 L66.25,88.8129529 L66.25,84.7081258 L66.6302127,84.9401116 Z" fill="#000000" fill-rule="nonzero"/></g></svg>